<svg version="1.1" id="Layer_1" xmlns="http://www.w3.org/2000/svg" xmlns:xlink="http://www.w3.org/1999/xlink" x="0px" y="0px"
	 viewBox="0 0 482.4 290.7" enable-background="new 0 0 482.4 290.7" xml:space="preserve">

	 <style>
	 	#XMLID_2_{
	 	transform-origin: 345px 280px;
	 	animation: wave cubic-bezier(1, 0.01, 1, -0.18) 2s infinite;
	 	}
	 	@keyframes wave{
			0% {
				transform: rotate(-30deg);
			}
			25% {
				transform: rotate(-30deg);
			}
			25.1% {
				transform: rotate(-12deg);
			}
			50% {
				transform: rotate(-12deg);
			}
			50.1% {
				transform: rotate(13deg);
			}
			75% {
				transform: rotate(13deg);
			}
			75.1% {
				transform: rotate(0deg);
			}
			100% {
				transform: rotate(0deg);
			}
	 	}
	 </style>



<g id="XMLID_1_">
	<polygon id="XMLID_9_" fill="#FFFF00" stroke="#000000" stroke-width="4" stroke-miterlimit="10" points="231.3,91.3 231.3,77.4 
		231.3,67.9 231.3,62.3 222.3,62.3 222.3,52.3 212.3,52.3 212.3,43.3 203.3,43.3 203.3,33.3 193.3,33.3 193.3,24.3 184.3,24.3 
		184.3,14.3 178.3,14.3 168.7,14.3 155.3,14.3 155.3,5.3 149.6,5.3 140.1,5.3 130.5,5.3 120.9,5.3 111.4,5.3 98.3,5.3 98.3,14.3 
		92.2,14.3 82.7,14.3 69.3,14.3 69.3,24.3 59.3,24.3 59.3,33.3 50.3,33.3 50.3,43.3 40.3,43.3 40.3,52.3 31.3,52.3 31.3,62.3 
		21.3,62.3 21.3,67.9 21.3,77.4 21.3,91.3 11.3,91.3 11.3,96.5 11.3,106.1 11.3,115.7 11.3,125.2 11.3,134.8 11.3,148.3 21.3,148.3 
		21.3,153.9 21.3,163.5 21.3,177.3 31.3,177.3 31.3,186.3 40.3,186.3 40.3,196.3 50.3,196.3 50.3,205.3 59.3,205.3 59.3,215.3 
		69.3,215.3 69.3,224.3 82.7,224.3 92.2,224.3 98.3,224.3 98.3,234.3 111.4,234.3 120.9,234.3 130.5,234.3 140.1,234.3 149.6,234.3 
		155.3,234.3 155.3,224.3 168.7,224.3 178.3,224.3 184.3,224.3 184.3,215.3 193.3,215.3 193.3,205.3 203.3,205.3 203.3,196.3 
		212.3,196.3 212.3,186.3 222.3,186.3 222.3,177.3 231.3,177.3 231.3,163.5 231.3,153.9 231.3,148.3 241.3,148.3 241.3,134.8 
		241.3,125.2 241.3,115.7 241.3,106.1 241.3,96.5 241.3,91.3 	"/>
	<g id="XMLID_6_">
		<polygon id="XMLID_8_" points="83.3,73 83.3,70.3 81.3,70.3 81.3,67.3 78.6,67.3 76.3,67.3 76.3,65.3 73.3,65.3 71.2,65.3 
			68,65.3 65.3,65.3 65.3,67.3 62.8,67.3 59.3,67.3 59.3,70.3 57.3,70.3 57.3,73 57.3,75.3 54.3,75.3 54.3,78.2 54.3,80.4 
			54.3,83.5 54.3,87.3 57.3,87.3 57.3,88.8 57.3,92.3 59.6,92.3 62.3,92.3 62.3,94.3 64.9,94.3 68.3,94.3 68.3,97.3 71.2,97.3 
			73.3,97.3 73.3,94.3 76.5,94.3 78.6,94.3 81.3,94.3 81.3,92.3 83.3,92.3 83.3,88.8 83.3,87.3 87.3,87.3 87.3,83.5 87.3,80.4 
			87.3,78.2 87.3,75.3 83.3,75.3 		"/>
		<polygon id="XMLID_239_" points="203.3,78.3 203.3,75.1 203.3,73 203.3,70.3 201.3,70.3 201.3,67.3 198.2,67.3 195.3,67.3 
			195.3,65.3 192.9,65.3 189.8,65.3 187.7,65.3 184.3,65.3 184.3,67.3 182.4,67.3 179.3,67.3 179.3,70.3 177.3,70.3 177.3,73 
			177.3,75.3 174.3,75.3 174.3,78.2 174.3,80.4 174.3,83.5 174.3,87.3 177.3,87.3 177.3,88.8 177.3,92.3 179.3,92.3 179.3,94.3 
			182.4,94.3 184.5,94.3 188.3,94.3 188.3,97.3 189.8,97.3 193.3,97.3 193.3,94.3 196.1,94.3 198.3,94.3 198.3,92.3 201.3,92.3 
			201.3,89.3 203.3,89.3 203.3,86.7 203.3,84.3 207.3,84.3 207.3,80.4 207.3,78.3 		"/>
	</g>
	<polygon id="XMLID_349_" points="196.3,146.3 196.3,147.8 196.3,151.3 187.3,151.3 187.3,152.7 187.3,155.1 187.3,158.3 
		178.3,158.3 178.3,160.1 178.3,162.5 178.3,165.3 171.3,165.3 171.3,167.4 171.3,170.3 162.3,170.3 162.3,173.3 155.3,173.3 
		155.3,174.3 147.3,174.3 147.3,178.3 137.3,178.3 137.3,180.3 131.2,180.3 121.3,180.3 121.3,178.3 113.3,178.3 113.3,174.3 
		106.3,174.3 106.3,173.3 97.3,173.3 97.3,170.3 90.3,170.3 90.3,167.4 90.3,165.3 81.3,165.3 81.3,162.5 81.3,160.1 81.3,158.3 
		73.3,158.3 73.3,155.1 73.3,152.7 73.3,151.3 65.3,151.3 65.3,147.8 65.3,146.3 56.3,146.3 56.3,147.8 56.3,150.2 56.3,153.3 
		65.3,153.3 65.3,155.1 65.3,157.6 65.3,160.1 65.3,162.3 73.3,162.3 73.3,165 73.3,167.4 73.3,170.3 81.3,170.3 81.3,172.4 
		81.3,174.3 90.3,174.3 90.3,177.3 90.3,180.3 97.3,180.3 97.3,183.3 106.3,183.3 106.3,185.3 113.3,185.3 113.3,187.3 122.6,187.3 
		131.2,187.3 138.6,187.3 147.3,187.3 147.3,185.3 155.3,185.3 155.3,183.3 162.3,183.3 162.3,180.3 171.3,180.3 171.3,177.3 
		171.3,174.3 178.3,174.3 178.3,172.4 178.3,170.3 187.3,170.3 187.3,167.4 187.3,165 187.3,162.3 196.3,162.3 196.3,160.1 
		196.3,157.6 196.3,155.1 196.3,153.3 203.3,153.3 203.3,150.2 203.3,147.8 203.3,146.3 	"/>
</g>
<g id="XMLID_2_">
	<g id="XMLID_4_">
		<polygon id="XMLID_5_" points="350.8,274.3 345.8,274.3 339.8,274.3 334.3,274.3 334.3,269.3 328.8,269.3 323.3,269.3 
			323.3,264.3 317.8,264.3 312.3,264.3 312.3,269.3 317.3,269.3 317.3,274.3 323.8,274.3 328.3,274.3 328.3,279.3 334.8,279.3 
			339.8,279.3 345.8,279.3 350.8,279.3 355.8,279.3 361.3,279.3 361.3,274.3 355.8,274.3 		"/>
		<polygon id="XMLID_54_" points="366.3,264.3 366.3,269.3 361.3,269.3 361.3,274.3 366.8,274.3 372.3,274.3 372.3,269.3 
			377.3,269.3 377.3,264.3 372.8,264.3 		"/>
		<polygon id="XMLID_55_" points="377.3,258.8 377.3,264.3 382.3,264.3 382.3,258.8 382.3,254.3 377.3,254.3 		"/>
		<polygon id="XMLID_56_" points="312.3,254.3 307.3,254.3 307.3,250.3 301.3,250.3 301.3,253.8 301.3,259.3 307.3,259.3 
			307.3,264.3 312.3,264.3 312.3,258.8 		"/>
		<rect id="XMLID_57_" x="382.3" y="250.3" width="6" height="4"/>
		<polygon id="XMLID_58_" points="388.3,244.8 388.3,250.3 393.3,250.3 393.3,244.8 393.3,240.3 388.3,240.3 		"/>
		<polygon id="XMLID_59_" points="301.3,241.7 301.3,239.8 301.3,235.3 296.3,235.3 296.3,239.8 296.3,241.7 296.3,244.8 
			296.3,250.3 301.3,250.3 301.3,244.8 		"/>
		<polygon id="XMLID_60_" points="296.3,225.3 290.3,225.3 290.3,229.8 290.3,235.3 296.3,235.3 296.3,229.8 		"/>
		<polygon id="XMLID_61_" points="399.3,230.3 393.3,230.3 393.3,234.8 393.3,240.3 399.3,240.3 399.3,235.3 404.3,235.3 
			404.3,229.8 404.3,225.3 399.3,225.3 		"/>
		<rect id="XMLID_62_" x="404.3" y="220.3" width="6" height="5"/>
		<polygon id="XMLID_63_" points="290.3,214.8 290.3,210.3 285.3,210.3 285.3,214.8 285.3,219.8 285.3,225.3 290.3,225.3 
			290.3,219.8 		"/>
		<polygon id="XMLID_64_" points="285.3,200.3 280.3,200.3 280.3,204.8 280.3,210.3 285.3,210.3 285.3,204.8 		"/>
		<polygon id="XMLID_65_" points="426.3,195.3 426.3,200.3 420.3,200.3 420.3,205.3 415.3,205.3 415.3,210.3 410.3,210.3 
			410.3,214.8 410.3,220.3 415.3,220.3 415.3,215.3 420.3,215.3 420.3,210.3 426.3,210.3 426.3,205.3 431.3,205.3 431.3,200.3 
			437.3,200.3 437.3,195.3 431.8,195.3 		"/>
		<rect id="XMLID_66_" x="274.3" y="195.3" width="6" height="5"/>
		<polygon id="XMLID_67_" points="274.3,186.3 269.3,186.3 269.3,190.8 269.3,195.3 274.3,195.3 274.3,190.8 		"/>
		<polygon id="XMLID_68_" points="442.3,186.3 437.3,186.3 437.3,190.8 437.3,195.3 442.3,195.3 442.3,191.3 447.3,191.3 
			447.3,185.8 447.3,181.3 442.3,181.3 		"/>
		<polygon id="XMLID_69_" points="312.8,186.3 317.8,186.3 323.3,186.3 323.3,180.8 323.3,176.3 317.3,176.3 317.3,181.3 
			312.8,181.3 307.3,181.3 307.3,186.3 		"/>
		<rect id="XMLID_70_" x="301.3" y="176.3" width="6" height="5"/>
		<polygon id="XMLID_71_" points="269.3,175.8 269.3,170.8 269.3,166.3 263.3,166.3 263.3,170.8 263.3,175.8 263.3,180.8 
			263.3,186.3 269.3,186.3 269.3,180.8 		"/>
		<polygon id="XMLID_72_" points="447.3,175.8 447.3,181.3 453.3,181.3 453.3,175.8 453.3,171.3 447.3,171.3 		"/>
		<rect id="XMLID_73_" x="404.3" y="171.3" width="6" height="5"/>
		<polygon id="XMLID_74_" points="399.3,171.3 393.3,171.3 393.3,175.8 393.3,181.3 388.3,181.3 388.3,186.3 382.3,186.3 
			382.3,190.8 382.3,195.3 388.3,195.3 388.3,191.3 393.3,191.3 393.3,186.3 399.3,186.3 399.3,181.3 404.3,181.3 404.3,176.3 
			399.3,176.3 		"/>
		<rect id="XMLID_75_" x="410.3" y="166.3" width="5" height="5"/>
		<polygon id="XMLID_76_" points="399.3,165.8 399.3,171.3 404.3,171.3 404.3,165.8 404.3,161.3 399.3,161.3 		"/>
		<polygon id="XMLID_77_" points="296.3,171.3 296.3,176.3 301.3,176.3 301.3,170.8 301.3,166.3 296.8,166.3 290.3,166.3 
			290.3,171.3 		"/>
		<rect id="XMLID_78_" x="415.3" y="161.3" width="5" height="5"/>
		<polygon id="XMLID_79_" points="280.8,166.3 285.8,166.3 290.3,166.3 290.3,161.3 285.8,161.3 280.8,161.3 274.8,161.3 
			269.3,161.3 269.3,166.3 274.8,166.3 		"/>
		<rect id="XMLID_80_" x="420.3" y="156.3" width="6" height="5"/>
		<polygon id="XMLID_81_" points="404.3,155.8 404.3,161.3 410.3,161.3 410.3,155.8 410.3,151.3 404.3,151.3 		"/>
		<polygon id="XMLID_82_" points="453.3,151.3 453.3,155.8 453.3,160.8 453.3,165.8 453.3,171.3 458.3,171.3 458.3,165.8 
			458.3,160.8 458.3,155.8 458.3,151.3 		"/>
		<polygon id="XMLID_83_" points="437.3,156.3 437.3,151.3 431.8,151.3 426.3,151.3 426.3,156.3 431.8,156.3 		"/>
		<polygon id="XMLID_84_" points="447.8,151.3 453.3,151.3 453.3,146.3 447.8,146.3 442.8,146.3 437.3,146.3 437.3,151.3 
			442.8,151.3 		"/>
		<polygon id="XMLID_85_" points="410.3,135.8 410.3,140.8 410.3,145.8 410.3,151.3 415.3,151.3 415.3,145.8 415.3,140.8 
			415.3,135.8 415.3,132.3 410.3,132.3 		"/>
		<polygon id="XMLID_86_" points="361.3,131.8 361.3,135.8 361.3,140.8 361.3,145.8 361.3,150.8 361.3,156.3 355.3,156.3 
			355.3,160.8 355.3,165.8 355.3,170.8 355.3,175.8 355.3,181.3 361.3,181.3 361.3,175.8 361.3,171.3 366.3,171.3 366.3,165.8 
			366.3,161.3 372.3,161.3 372.3,155.8 372.3,151.3 377.3,151.3 377.3,145.8 377.3,141.3 372.3,141.3 372.3,146.3 366.3,146.3 
			366.3,140.8 366.3,135.8 366.3,131.8 366.3,126.8 366.3,122.3 361.3,122.3 361.3,126.8 		"/>
		<polygon id="XMLID_87_" points="382.3,135.8 382.3,132.3 377.3,132.3 377.3,135.8 377.3,141.3 382.3,141.3 		"/>
		<polygon id="XMLID_88_" points="415.3,132.3 420.3,132.3 420.3,126.8 420.3,122.3 415.3,122.3 415.3,126.8 		"/>
		<polygon id="XMLID_89_" points="388.3,126.8 388.3,122.3 382.3,122.3 382.3,126.8 382.3,132.3 388.3,132.3 		"/>
		<rect id="XMLID_90_" x="388.3" y="117.3" width="5" height="5"/>
		<polygon id="XMLID_91_" points="404.8,117.3 410.3,117.3 410.3,122.3 415.3,122.3 415.3,116.8 415.3,112.3 410.8,112.3 
			404.8,112.3 399.8,112.3 393.3,112.3 393.3,117.3 399.8,117.3 		"/>
		<polygon id="XMLID_92_" points="355.3,122.3 361.3,122.3 361.3,116.8 361.3,112.3 355.3,112.3 355.3,116.8 		"/>
		<rect id="XMLID_93_" x="350.3" y="107.3" width="5" height="5"/>
		<polygon id="XMLID_94_" points="334.3,112.3 339.3,112.3 339.3,107.3 334.8,107.3 328.3,107.3 328.3,111.8 328.3,117.3 
			334.3,117.3 		"/>
		<polygon id="XMLID_95_" points="350.3,107.3 350.3,102.3 345.8,102.3 339.3,102.3 339.3,107.3 345.8,107.3 		"/>
		<polygon id="XMLID_96_" points="328.3,170.8 328.3,165.8 328.3,160.8 328.3,155.8 328.3,150.8 328.3,145.8 328.3,140.8 
			328.3,135.8 328.3,131.8 328.3,126.8 328.3,121.8 328.3,117.3 323.3,117.3 323.3,121.8 323.3,126.8 323.3,131.8 323.3,135.8 
			323.3,140.8 323.3,145.8 323.3,150.8 323.3,155.8 323.3,160.8 323.3,165.8 323.3,170.8 323.3,176.3 328.3,176.3 		"/>
	</g>
	<g id="XMLID_3_">
		<polygon id="XMLID_97_" fill="#FFFF00" points="453.3,160.8 453.3,155.8 453.3,151.3 447.3,151.3 442.3,151.3 437.3,151.3 
			437.3,156.3 431.3,156.3 426.3,156.3 426.3,161.3 420.3,161.3 420.3,166.3 415.3,166.3 415.3,171.3 410.3,171.3 410.3,176.3 
			404.3,176.3 404.3,181.3 399.3,181.3 399.3,186.3 393.3,186.3 393.3,191.3 388.3,191.3 388.3,195.3 382.3,195.3 382.3,190.8 
			382.3,186.3 388.3,186.3 388.3,181.3 393.3,181.3 393.3,175.8 393.3,171.3 399.3,171.3 399.3,165.8 399.3,161.3 404.3,161.3 
			404.3,155.8 404.3,151.3 410.3,151.3 410.3,145.8 410.3,140.8 410.3,135.8 410.3,132.3 415.3,132.3 415.3,126.8 415.3,122.3 
			410.3,122.3 410.3,117.3 404.3,117.3 399.3,117.3 393.3,117.3 393.3,122.3 388.3,122.3 388.3,126.8 388.3,132.3 382.3,132.3 
			382.3,135.8 382.3,141.3 377.3,141.3 377.3,145.8 377.3,151.3 372.3,151.3 372.3,155.8 372.3,161.3 366.3,161.3 366.3,165.8 
			366.3,171.3 361.3,171.3 361.3,175.8 361.3,181.3 355.3,181.3 355.3,175.8 355.3,170.8 355.3,165.8 355.3,160.8 355.3,156.3 
			361.3,156.3 361.3,150.8 361.3,145.8 361.3,140.8 361.3,135.8 361.3,131.8 361.3,126.8 361.3,122.3 355.3,122.3 355.3,116.8 
			355.3,112.3 350.3,112.3 350.3,107.3 345.3,107.3 339.3,107.3 339.3,112.3 334.3,112.3 334.3,117.3 328.3,117.3 328.3,121.8 
			328.3,126.8 328.3,131.8 328.3,135.8 328.3,140.8 328.3,145.8 328.3,150.8 328.3,155.8 328.3,160.8 328.3,165.8 328.3,170.8 
			328.3,176.3 323.3,176.3 323.3,180.8 323.3,186.3 317.3,186.3 312.3,186.3 307.3,186.3 307.3,181.3 301.3,181.3 301.3,176.3 
			296.3,176.3 296.3,171.3 290.3,171.3 290.3,166.3 285.3,166.3 280.3,166.3 274.3,166.3 269.3,166.3 269.3,170.8 269.3,175.8 
			269.3,180.8 269.3,186.3 274.3,186.3 274.3,190.8 274.3,195.3 280.3,195.3 280.3,200.3 285.3,200.3 285.3,204.8 285.3,210.3 
			290.3,210.3 290.3,214.8 290.3,219.8 290.3,225.3 296.3,225.3 296.3,229.8 296.3,235.3 301.3,235.3 301.3,239.8 301.3,241.7 
			301.3,244.8 301.3,250.3 307.3,250.3 307.3,254.3 312.3,254.3 312.3,258.8 312.3,264.3 317.3,264.3 323.3,264.3 323.3,269.3 
			328.3,269.3 334.3,269.3 334.3,274.3 339.3,274.3 345.3,274.3 350.3,274.3 355.3,274.3 361.3,274.3 361.3,269.3 366.3,269.3 
			366.3,264.3 372.3,264.3 377.3,264.3 377.3,258.8 377.3,254.3 382.3,254.3 382.3,250.3 388.3,250.3 388.3,244.8 388.3,240.3 
			393.3,240.3 393.3,234.8 393.3,230.3 399.3,230.3 399.3,225.3 404.3,225.3 404.3,220.3 410.3,220.3 410.3,214.8 410.3,210.3 
			415.3,210.3 415.3,205.3 420.3,205.3 420.3,200.3 426.3,200.3 426.3,195.3 431.3,195.3 437.3,195.3 437.3,190.8 437.3,186.3 
			442.3,186.3 442.3,181.3 447.3,181.3 447.3,175.8 447.3,171.3 453.3,171.3 453.3,165.8 		"/>
		<rect id="XMLID_98_" x="399.3" y="171.3" fill="#FFFF00" width="5" height="5"/>
	</g>
</g>
</svg>
